<svg xmlns="http://www.w3.org/2000/svg" viewBox="0 0 123.07 123.07"><defs><style>.cls-1{fill:#0f3155;}</style></defs><g id="Layer_2" data-name="Layer 2"><g id="Layer_1-2" data-name="Layer 1"><path class="cls-1" d="M123.07,61.53c0,1.62-.06,3.23-.19,4.81H111.73a47.82,47.82,0,0,0,.23-4.81A50.42,50.42,0,0,0,11.35,56.62h13a37.53,37.53,0,0,1,74.41,0,36.31,36.31,0,0,1,.32,4.92,38.47,38.47,0,0,1-.32,4.95h-34l-9.22-8.58L54.1,56.62H89.3A28.18,28.18,0,1,0,78,84.46a28.71,28.71,0,0,0,6.89-7.06l6.89,6.41,9.49,8.83,8.15,7.58a59.71,59.71,0,0,1-6.8,7.15A61.53,61.53,0,0,1,1.1,73.16H12.46a50.42,50.42,0,0,0,81.95,26.6l-9.52-8.85A37.53,37.53,0,0,1,24.32,66.34H.19C.06,64.76,0,63.15,0,61.53a61.54,61.54,0,0,1,123.07,0Z"/></g></g></svg>